<svg width="48" height="48" viewBox="0 0 48 48" fill="none" xmlns="http://www.w3.org/2000/svg">
<path d="M30.8679 0.189374C29.583 0.32462 28.3658 1.20372 27.6896 2.48856C26.8105 4.24677 20.3187 17.2981 19.0338 18.5829C17.749 19.8677 16.0584 20.4763 14.1649 20.4763V47.5256H37.8331C39.2532 47.5256 40.4704 46.6465 41.0114 45.4293C41.0114 45.4293 47.9766 25.751 47.9766 23.8575C47.9766 21.9641 46.4888 20.4763 44.5954 20.4763H34.4519C32.5585 20.4763 31.0707 18.7858 31.0707 17.0952C31.0707 15.4046 33.7081 6.41071 34.249 4.65251C34.79 2.8943 33.9109 1.00085 32.1527 0.392243C31.6794 0.256997 31.3412 0.12175 30.8679 0.189374ZM0.640289 20.4763V47.5256H7.40261V20.4763H0.640289Z" fill="url(#paint0_linear_11_628)"/>
<defs>
<linearGradient id="paint0_linear_11_628" x1="24.3084" y1="0.171387" x2="24.3084" y2="47.5256" gradientUnits="userSpaceOnUse">
<stop stop-color="#8F55BB"/>
<stop offset="1" stop-color="#EE5EA2"/>
</linearGradient>
</defs>
</svg>
